<svg xmlns="http://www.w3.org/2000/svg" viewBox="0 0 248.95 218.44"><defs><style>.cls-1{opacity:0.5;}.cls-2{fill:#ddebff;opacity:0.4;}.cls-3{fill:#c2b9f3;}.cls-4{fill:#96d6ff;}.cls-5,.cls-6{fill:#fff;}.cls-6{stroke:#444;opacity:0.6;}.cls-6,.cls-8{stroke-miterlimit:10;stroke-width:2px;}.cls-7{fill:#ff8c8c;}.cls-8{fill:none;stroke:#6262a0;}.cls-9{fill:#edbb85;}.cls-10{fill:#191919;opacity:0.1;}.cls-11{fill:#e2e8f5;}</style></defs><title>Asset 120</title><g id="Layer_2" data-name="Layer 2"><g id="Layer_1-2" data-name="Layer 1"><g class="cls-1"><path class="cls-2" d="M248.42,68.63q-.24,1.56-.6,3.16c-2,9.07-6.83,17.25-9.06,26.26-5.38,21.83,12.26,41.28,6.26,62.57-1.81,6.4-5.84,11.9-10.33,16.71-11.53,12.39-26.23,21.08-40.7,29.6-6.71,3.95-14.07,8-21.71,6.9-7.22-1.07-13.05-6.6-20-8.91-13.86-4.61-28.09,4.17-41.83,9.16-10.84,3.93-22.62,5.54-33.92,3.44S54.45,209.4,47.43,200c-4.84-6.46-8-14.54-14.55-19.18-6-4.26-13.77-4.84-20.16-8.42A25.69,25.69,0,0,1,0,150.33C.08,135.27,12.81,123.84,18.53,110c4.65-11.25,4.56-23.93,3.72-36.12-.95-13.79-2.64-28,.85-41.58,5.32-20.66,20-25.14,38.43-27.9,16.5-2.46,33.73-7.26,50.21-2,7.71,2.45,14.15,8,22.07,9.87,14.49,3.5,28.24-5.43,42.55-5.9,12-.39,24.79,2.71,35.79,7.59C233.36,23.32,252.38,43.09,248.42,68.63Z"/><polygon class="cls-3" points="28.32 151.74 25.27 150.87 22.11 151.26 22 148.09 20.65 145.21 23.63 144.12 25.95 141.94 27.91 144.45 30.7 145.98 28.92 148.62 28.32 151.74"/><polygon class="cls-4" points="67.82 24 64.76 23.13 61.61 23.52 61.49 20.35 60.14 17.47 63.13 16.38 65.45 14.21 67.4 16.71 70.19 18.24 68.41 20.88 67.82 24"/><polygon class="cls-4" points="228.05 176 225 175.13 221.84 175.52 221.73 172.35 220.38 169.47 223.36 168.38 225.68 166.21 227.64 168.71 230.43 170.24 228.65 172.88 228.05 176"/><polygon class="cls-4" points="77.87 209.4 74.81 208.52 71.66 208.92 71.54 205.74 70.19 202.86 73.18 201.78 75.5 199.6 77.45 202.1 80.24 203.64 78.46 206.27 77.87 209.4"/><polygon class="cls-3" points="216.96 47.16 212.56 45.9 208.01 46.47 207.85 41.9 205.9 37.75 210.2 36.18 213.54 33.05 216.36 36.66 220.38 38.86 217.82 42.66 216.96 47.16"/><path class="cls-5" d="M30.19,116.32H56a1.25,1.25,0,0,0,0-2.5H30.19a1.25,1.25,0,0,0,0,2.5Z"/><path class="cls-5" d="M32.62,121.64H45.5a1.25,1.25,0,0,0,0-2.5H32.62a1.25,1.25,0,0,0,0,2.5Z"/><path class="cls-5" d="M62.48,116.32h8.8a1.25,1.25,0,0,0,0-2.5h-8.8a1.25,1.25,0,0,0,0,2.5Z"/><path class="cls-5" d="M15.82,127h6.47a1.25,1.25,0,0,0,0-2.5H15.82a1.25,1.25,0,0,0,0,2.5Z"/><path class="cls-5" d="M27.62,127H53.39a1.25,1.25,0,0,0,0-2.5H27.62a1.25,1.25,0,0,0,0,2.5Z"/><path class="cls-5" d="M146.32,182.11H120.54a1.25,1.25,0,0,0,0,2.5h25.78a1.25,1.25,0,0,0,0-2.5Z"/><path class="cls-5" d="M143.89,187.43H131a1.25,1.25,0,0,0,0,2.5h12.89a1.25,1.25,0,0,0,0-2.5Z"/><path class="cls-5" d="M114,182.11h-8.8a1.25,1.25,0,0,0,0,2.5H114a1.25,1.25,0,0,0,0-2.5Z"/><path class="cls-5" d="M160.69,192.76h-6.47a1.25,1.25,0,0,0,0,2.5h6.47a1.25,1.25,0,0,0,0-2.5Z"/><path class="cls-5" d="M148.89,192.76H123.11a1.25,1.25,0,0,0,0,2.5h25.78a1.25,1.25,0,0,0,0-2.5Z"/><path class="cls-5" d="M201.78,17.85H176a1.25,1.25,0,0,0,0,2.5h25.78a1.25,1.25,0,0,0,0-2.5Z"/><path class="cls-5" d="M199.36,23.18H186.47a1.25,1.25,0,0,0,0,2.5h12.89a1.25,1.25,0,0,0,0-2.5Z"/><path class="cls-5" d="M169.49,17.85h-8.8a1.25,1.25,0,0,0,0,2.5h8.8a1.25,1.25,0,0,0,0-2.5Z"/><path class="cls-5" d="M216.15,28.5h-6.47a1.25,1.25,0,0,0,0,2.5h6.47a1.25,1.25,0,0,0,0-2.5Z"/><path class="cls-5" d="M204.36,28.5H178.58a1.25,1.25,0,0,0,0,2.5h25.78a1.25,1.25,0,0,0,0-2.5Z"/><path class="cls-6" d="M20.65,66.87A13.37,13.37,0,0,0,34,80.25H65.66A13.38,13.38,0,0,0,70.51,54.4v-.3a14,14,0,0,0-25.68-7.69A8.42,8.42,0,0,0,40.11,45a8.51,8.51,0,0,0-8.52,8.52v.22A13.39,13.39,0,0,0,20.65,66.87Z"/><path class="cls-6" d="M234.21,116.87v-.22a8.42,8.42,0,0,0-8.43-8.43,8.34,8.34,0,0,0-4.68,1.42,13.85,13.85,0,0,0-25.42,7.61v.3a13.24,13.24,0,0,0,4.8,25.59h31.31a13.25,13.25,0,0,0,2.41-26.27Z"/></g><path class="cls-7" d="M73,39.69,84.87,188.55a10,10,0,0,0,10,9.23H172a10,10,0,0,0,10-9.23L193.9,39.69Z"/><circle class="cls-5" cx="133.43" cy="118.73" r="28.91"/><circle class="cls-8" cx="133.43" cy="118.73" r="28.91"/><path class="cls-9" d="M147.28,108.6a.92.92,0,0,0-1.5-.19h0c-1.45,2.31-4.42,6.21-12.37,12.12-6,4.48-8.53,8.29-9.73,10.49a2.83,2.83,0,0,0,2.16,3.41c5.29,1.38,12.2-1.18,17.24-6.93C148.44,121.4,150,113.68,147.28,108.6Z"/><path class="cls-9" d="M121,128.71h0a35.3,35.3,0,0,1,10.89-10.87c6.84-4.54,9.86-9.44,11-11.8a2.25,2.25,0,0,0-1.37-2.53c-5.42-2.3-13.13.19-18.62,6.45-5,5.72-6.67,12.87-4.66,17.93C119.66,130.33,121,128.71,121,128.71Z"/><polygon class="cls-10" points="192.91 51.89 192.46 56.21 74.39 56.21 73.94 51.89 192.91 51.89"/><path class="cls-8" d="M73,39.69,84.87,188.55a10,10,0,0,0,10,9.23H172a10,10,0,0,0,10-9.23L193.9,39.69Z"/><path class="cls-11" d="M191.95,25.34H76.14c1-2.76,3.1-4.68,5.61-4.68h104.6C188.83,20.66,191,22.58,191.95,25.34Z"/><path class="cls-8" d="M186.62,20.66H80.23A5.32,5.32,0,0,0,74.91,26v4h117V26A5.32,5.32,0,0,0,186.62,20.66Z"/><path class="cls-5" d="M194.27,30H72.58c-3.94,0-7.13,4.9-7.13,10.94s3.19,10.94,7.13,10.94H194.27c3.94,0,7.13-4.9,7.13-10.94S198.21,30,194.27,30Z"/><path class="cls-11" d="M200.8,36.52H66.06c1.12-3.84,3.61-6.5,6.52-6.5H194.27C197.17,30,199.68,32.68,200.8,36.52Z"/><path class="cls-8" d="M194.27,30H72.58c-3.94,0-7.13,4.9-7.13,10.94s3.19,10.94,7.13,10.94H194.27c3.94,0,7.13-4.9,7.13-10.94S198.21,30,194.27,30Z"/><path class="cls-5" d="M179,82l-2.78,33.24c-.2,2.4,3.55,2.39,3.75,0L182.76,82c.2-2.4-3.55-2.39-3.75,0Z"/><path class="cls-5" d="M180.48,64.44l-.95,11.29c-.2,2.4,3.55,2.39,3.75,0l.95-11.29c.2-2.4-3.55-2.39-3.75,0Z"/></g></g></svg>