<svg xmlns="http://www.w3.org/2000/svg" xmlns:xlink="http://www.w3.org/1999/xlink" viewBox="0 0 1694.42 1198.5"><defs><style>.cls-1,.cls-13,.cls-21,.cls-4{fill:none;}.cls-1{stroke:#e7f6ff;}.cls-1,.cls-13,.cls-21{stroke-miterlimit:10;}.cls-1,.cls-13{stroke-width:12px;}.cls-2{fill:#e7f6ff;}.cls-3{fill:url(#linear-gradient);}.cls-5{fill:#426572;}.cls-6{fill:#fff;}.cls-7{fill:#e5e5e5;}.cls-8{opacity:0.04;}.cls-9{fill:#a8a8a8;}.cls-10{fill:#dde4ed;}.cls-11{fill:#d1d8e0;}.cls-12{fill:#e8837e;}.cls-13,.cls-21{stroke:#426572;}.cls-14,.cls-17{opacity:0.5;}.cls-15{fill:#bbd2e5;}.cls-16{fill:#ef4f43;}.cls-17{fill:#d9e2ef;}.cls-18{fill:#dd3e3a;}.cls-19{fill:#8da3b2;opacity:0.2;}.cls-20{fill:#d66765;}.cls-21{stroke-width:14px;}</style><linearGradient id="linear-gradient" y1="570.21" x2="1669.95" y2="570.21" gradientUnits="userSpaceOnUse"><stop offset="0" stop-color="#c5e9fa"/><stop offset="1" stop-color="#c4f4ea"/></linearGradient></defs><title>Asset 590</title><g id="Layer_2" data-name="Layer 2"><g id="Layer_1-2" data-name="Layer 1"><circle class="cls-1" cx="1587.38" cy="1019.49" r="25.9" transform="matrix(0.95, -0.31, 0.31, 0.95, -237.76, 541.98)"/><circle class="cls-2" cx="1583.9" cy="1098.84" r="14.61" transform="translate(-262.51 544.81) rotate(-18.05)"/><path class="cls-3" d="M1621.42,674.51c-60.56,156.81-174.42,294.18-332.57,354.55a574.47,574.47,0,0,1-62.91,19.92c-112.83,28.78-236.27,18.77-340.24-33.66-44.15-22.26-84.4-51.68-128.7-73.63s-94.94-36.31-143.18-25.47c-41.52,9.33-76.55,36.05-111.82,59.86-83.15,56.14-183.12,100.57-281.57,81.29-45.24-8.86-89.92-33.41-111-74.43C63,892.24,150.67,784.45,132.91,684.08c-11.36-64.2-63.28-112.28-95.56-168.92C-17.86,418.25-11.33,289.52,53.42,198.7s184.31-139,293.93-118.36C481,105.46,582.06,218.57,712,258.6c81.23,25,169.53,17.55,247.15-15.39,125.43-53.23,297.74-134.87,438.89-121.57,75.06,7.07,148.67,40.39,198.21,97.22,62.59,71.81,81.4,173.75,70.95,268.44A750.64,750.64,0,0,1,1621.42,674.51Z"/><circle class="cls-1" cx="368.27" cy="32.76" r="26.76"/><circle class="cls-2" cx="445.12" cy="61.58" r="15.1"/><circle class="cls-1" cx="1661.65" cy="763.76" r="26.76" transform="translate(527.8 2198.61) rotate(-76.37)"/><circle class="cls-2" cx="1615.53" cy="831.66" r="15.1" transform="translate(426.56 2205.68) rotate(-76.37)"/><circle class="cls-1" cx="71.79" cy="760.48" r="26.76" transform="translate(-32.68 3.8) rotate(-2.47)"/><circle class="cls-2" cx="46.31" cy="838.5" r="15.1" transform="translate(-36.07 2.77) rotate(-2.47)"/><circle class="cls-1" cx="943.01" cy="198.45" r="26.76" transform="translate(56.96 577.35) rotate(-35.04)"/><circle class="cls-2" cx="863.54" cy="218.98" r="15.1" transform="translate(30.77 535.44) rotate(-35.04)"/><rect class="cls-4" x="948.76" y="215.71" width="59.27" height="59.27"/><rect class="cls-4" x="948.76" y="215.71" width="59.27" height="59.27"/><path class="cls-5" d="M1117.05,1040.5"/><path class="cls-6" d="M1628.4,279.49a55.24,55.24,0,0,0-55.24-55.24c-1.22,0-2.43,0-3.64.12.08-1.2.12-2.41.12-3.64a55.24,55.24,0,1,0-108.67,14,55.24,55.24,0,1,0-43.46,98.85,55.25,55.25,0,0,0,91.73,18.57,55.25,55.25,0,0,0,83.5-21A55.26,55.26,0,0,0,1628.4,279.49Z"/><path class="cls-6" d="M371.75,255a55.24,55.24,0,0,0-55.24-55.24c-1.22,0-2.43,0-3.64.12.08-1.2.12-2.41.12-3.64a55.24,55.24,0,1,0-108.67,14,55.24,55.24,0,1,0-43.46,98.85,55.25,55.25,0,0,0,91.73,18.57,55.25,55.25,0,0,0,83.5-21A55.26,55.26,0,0,0,371.75,255Z"/><polygon class="cls-7" points="1538.4 972.88 1194.67 1081.69 1194.67 295.31 1538.4 186.5 1538.4 972.88"/><rect class="cls-6" x="853.41" y="295.31" width="343.73" height="786.38"/><polygon class="cls-7" points="855.88 1081.69 512.15 1190.5 512.15 404.12 855.88 295.31 855.88 1081.69"/><rect class="cls-6" x="175.83" y="404.11" width="343.73" height="786.38"/><g class="cls-8"><polygon class="cls-9" points="1189.73 967.94 848.47 967.94 512.15 1074.4 512.15 1076.74 168.41 1076.74 168.41 1190.5 512.15 1190.5 512.15 1188.15 848.47 1081.69 1189.73 1081.69 1189.73 1080.91 1530.99 972.88 1530.99 859.13 1189.73 967.15 1189.73 967.94"/></g><rect class="cls-10" x="410.76" y="703.34" width="76.66" height="430.29"/><polygon class="cls-11" points="935.49 609.37 885.56 609.37 885.56 1019.87 1049.01 1019.87 935.49 609.37"/><polygon class="cls-10" points="952.87 609.37 1066.4 1019.87 1165 1019.87 1165 609.37 952.87 609.37"/><polygon class="cls-11" points="694.12 402.52 559.13 443.86 559.13 480.77 559.13 562.74 559.13 599.18 559.13 681.36 700.79 637.66 694.12 402.52"/><polygon class="cls-12" points="711.29 397.26 717.96 632.36 826.21 598.97 826.21 480.77 826.21 362.07 711.29 397.26"/><polygon class="cls-11" points="1489.62 257.6 1236.71 335.05 1236.71 371.97 1236.71 453.94 1236.71 461 1489.62 257.6"/><polygon class="cls-12" points="1236.71 484.49 1236.71 490.37 1236.71 578.26 1503.79 495.87 1503.79 371.97 1503.79 269.71 1236.71 484.49"/><polygon class="cls-11" points="1503.79 809.4 1503.79 784.05 1503.79 577.98 1503.79 541.54 1503.79 513.99 1236.71 596.38 1236.71 606.61 1503.79 809.4"/><polygon class="cls-10" points="1165 390.67 1165 349.71 885.56 349.71 885.56 476.87 1165 390.67"/><polygon class="cls-11" points="885.56 494.99 885.56 592.05 1165 592.05 1165 408.78 885.56 494.99"/><polygon class="cls-11" points="559.13 1005.03 559.13 1123.73 559.13 1124.28 618.46 1105.02 618.55 1104.48 655.64 1092.45 655.56 1092.97 826.21 1037.55 826.21 1037.18 826.21 929.29 826.21 892.86 826.21 737.96 559.13 1005.03"/><polygon class="cls-10" points="825.66 715.13 826.21 715.68 826.21 686.79 826.21 650.35 826.21 617.08 559.13 699.47 559.13 805.25 559.13 841.68 559.13 981.66 825.66 715.13"/><polygon class="cls-12" points="1397.49 748.67 1236.71 626.6 1236.71 696.44 1236.71 732.87 1236.71 798.27 1397.49 748.67"/><polygon class="cls-12" points="393.45 972.38 393.45 703.34 207.98 703.34 207.98 1029.59 393.45 972.38"/><polygon class="cls-10" points="207.98 1047.71 207.98 1133.62 393.45 1133.62 393.45 990.49 207.98 1047.71"/><rect class="cls-6" x="1498.84" y="334.87" width="12.36" height="14.84"/><path class="cls-6" d="M1511.2,468.41h-12.36V438.74h12.36Zm0-59.35h-12.36V379.39h12.36Z"/><polygon class="cls-6" points="1498.23 529.97 1489.9 520.84 1498.84 512.67 1498.84 500.56 1511.2 500.56 1511.2 518.12 1498.23 529.97"/><path class="cls-6" d="M1169.94,710.75h-29.67V698.39h29.67Zm-56.88,0h-29.67V698.39h29.67Zm-59.35,0H1024V698.39h29.67ZM1201.6,708l-2.87-12,28.71-6.86,2.87,12ZM1259,694.32l-2.87-12,28.71-6.86,2.87,12Zm57.42-13.72-2.87-12,17.83-4.26,5.9-5.39,8.34,9.13-8.26,7.54Zm51-32.45L1359.1,639l21.8-19.9,8.34,9.13Zm43.6-39.81-8.34-9.13,21.8-19.9,8.34,9.13Zm43.6-39.81-8.34-9.13,21.8-19.9,8.34,9.13Z"/><polygon class="cls-6" points="978.14 720.59 967.18 714.86 975.78 698.39 994.37 698.39 994.37 710.75 983.27 710.75 978.14 720.59"/><path class="cls-6" d="M931.62,807.12l-11-5.72,11.46-21.94,11,5.72Zm22.92-43.88-11-5.72L955,735.57l11,5.72Z"/><polygon class="cls-6" points="907.9 852.54 895.34 829.21 906.22 823.35 907.73 826.15 909.2 823.33 920.16 829.06 907.9 852.54"/><rect class="cls-6" x="875.67" y="777.81" width="12.37" height="26.62" transform="translate(-269.66 512.62) rotate(-28.3)"/><polygon class="cls-6" points="857.48 758.9 852.8 750.22 843.33 752.94 839.92 741.05 858.97 735.59 868.36 753.04 857.48 758.9"/><path class="cls-6" d="M520.28,846.76h-5.66V834.4h3.92l21.78-6.25L543.73,840Zm-35.33,0h-27.2V834.4h27.2Zm-56.88,0h-27.2V834.4h27.2Zm-54.4,0h-27.2V834.4h27.2Zm-56.88,0h-27.2V834.4h27.2ZM571.11,831l-3.41-11.89,27.22-7.81,3.41,11.89Zm54.44-15.61-3.41-11.89,27.22-7.81,3.41,11.89ZM680,799.77l-3.41-11.89,27.22-7.81L707.22,792Zm54.44-15.61L731,772.27l27.22-7.81,3.41,11.89Zm54.44-15.61-3.41-11.89,27.22-7.81,3.41,11.89Z"/><polygon class="cls-6" points="250.02 854.18 237.66 854.18 237.66 831.93 259.91 831.93 259.91 844.29 250.02 844.29 250.02 854.18"/><rect class="cls-6" x="240.13" y="891.28" width="12.36" height="37.09"/><rect class="cls-6" x="240.13" y="967.94" width="12.36" height="14.84"/><rect class="cls-10" x="309.37" y="463.46" width="178.05" height="222.56"/><rect class="cls-12" x="207.98" y="463.46" width="84.08" height="222.56"/><polygon class="cls-12" points="1414.46 761.55 1295.85 798.14 1376.39 970.11 1503.79 928.75 1503.79 928.37 1503.79 829.38 1414.46 761.55"/><polygon class="cls-10" points="1359.8 975.5 1279.15 803.29 1236.71 816.39 1236.71 1014.92 1236.71 1015.47 1296.03 996.21 1296.12 995.67 1333.22 983.65 1333.13 984.16 1359.8 975.5"/><polyline class="cls-13" points="177.41 1192.5 175.83 1192.5 512.15 1192.5 519.57 1192.5 522.57 1192.15 855.88 1083.69 1179.73 1083.69 1197.14 1083.69 1203.14 1082.91 1538.4 974.88 1538.4 188.5 1194.67 297.31 897.41 297.31 853.41 298.09 512.15 406.12 175.83 406.12 175.83 1078.74 175.41 1197.5"/><circle class="cls-1" cx="706.49" cy="113.15" r="21.6"/><circle class="cls-2" cx="768.52" cy="136.41" r="12.18"/><g class="cls-14"><path class="cls-15" d="M945.23,772.38v26.77c-7.75,24.63-19.91,53.43-35.89,85.21-6.57,12.6-13.62,25.92-21.15,39.59,5.15-8.68,10.11-17.35,14.88-25.9-5.58,10.58-11.48,21.56-17.69,32.73V889.22q.94-1.74,1.85-3.49c-.62,1.1-1.22,2.19-1.85,3.29v-1.54q4.17-7.87,8.12-15.45c17.35-34.51,30.21-65.5,37.8-91.46C936,777.94,940.64,775.19,945.23,772.38Z"/></g><path class="cls-16" d="M901.22,317h110.9a0,0,0,0,1,0,0V541.47a55.45,55.45,0,0,1-55.45,55.45h0a55.45,55.45,0,0,1-55.45-55.45V317A0,0,0,0,1,901.22,317Z"/><path class="cls-6" d="M903,317h0a0,0,0,0,1,0,0V541.47a55.45,55.45,0,0,1-55.45,55.45h0a55.45,55.45,0,0,1-55.45-55.45V427.92A110.9,110.9,0,0,1,903,317Z"/><path class="cls-17" d="M809.68,427.92V541.47a55.66,55.66,0,0,0,44.45,54.34,54.62,54.62,0,0,1-11,1.11,55.61,55.61,0,0,1-55.45-55.45V427.92A110.9,110.9,0,0,1,898.58,317v2.18A110.94,110.94,0,0,0,809.68,427.92Z"/><path class="cls-18" d="M925,341.66V566.11a54.83,54.83,0,0,0,5.8,24.6,55.53,55.53,0,0,1-26.92-47.49V318.78h110.9v22.88Z"/><path class="cls-6" d="M1012.12,317H1123a0,0,0,0,1,0,0V541.47a55.45,55.45,0,0,1-55.45,55.45h0a55.45,55.45,0,0,1-55.45-55.45V317A0,0,0,0,1,1012.12,317Z"/><path class="cls-17" d="M1030.6,336.38V560.83a54.83,54.83,0,0,0,5.8,24.6,55.53,55.53,0,0,1-26.92-47.49V313.5h110.9v22.88Z"/><path class="cls-13" d="M899.46,314.38h0a0,0,0,0,1,0,0V538.83A55.45,55.45,0,0,1,844,594.28h0a55.45,55.45,0,0,1-55.45-55.45V425.28A110.9,110.9,0,0,1,899.46,314.38Z"/><path class="cls-13" d="M899.46,314.38h110.9a0,0,0,0,1,0,0V538.83a55.45,55.45,0,0,1-55.45,55.45h0a55.45,55.45,0,0,1-55.45-55.45V314.38A0,0,0,0,1,899.46,314.38Z"/><path class="cls-13" d="M1010.36,314.38h110.9a0,0,0,0,1,0,0V538.83a55.45,55.45,0,0,1-55.45,55.45h0a55.45,55.45,0,0,1-55.45-55.45V314.38a0,0,0,0,1,0,0Z"/><path class="cls-6" d="M982.4,369.83V420c0,3.86,6,3.87,6,0V369.83c0-3.86-6-3.87-6,0Z"/><path class="cls-6" d="M982.4,435.84v20.24c0,3.86,6,3.87,6,0V435.84c0-3.86-6-3.87-6,0Z"/><path class="cls-19" d="M864.69,83.68C660.08,83.24,532.62,212,532.18,414.76,532,477.42,565,575.19,621.91,693.29c25.69,49.84,56.9,105.19,90,160.58,40.4,68.28,84.48,136.58,128.6,199.34l22.05,29.56c7.39-9.22,14.78-18.42,22.18-29.46,44.39-64.41,88.77-130.68,129.46-198.78,33.32-55.24,62.92-110.46,88.83-160.19,59.25-117.84,92.63-215.47,92.77-278.13C1196.2,219,1063.77,84.11,864.69,83.68Zm-1.15,534.54c-121.66-.26-221-100-220.72-221.68s100-221,221.67-220.72,221,100,220.72,221.67S985.2,618.49,863.54,618.22Z"/><path class="cls-6" d="M1059.41,382.54c-.26,121.7-100,221-221.69,220.73-105.37-.23-194-75.07-215.64-174.19a219.84,219.84,0,0,1-3.31-38.57c.26-121.64,100-221,221.67-220.72,105.21.23,193.73,74.87,215.57,173.72a.51.51,0,0,0,0,.16A219.68,219.68,0,0,1,1059.41,382.54Z"/><path class="cls-12" d="M841.09,71.5C636.48,71.06,509,199.81,508.58,402.58,508.44,465.24,541.4,563,598.3,681.11c25.69,49.84,56.9,105.19,90,160.58C728.68,910,772.76,978.26,816.88,1041l22.05,29.56c7.39-9.22,14.78-18.42,22.18-29.46,44.39-64.41,88.77-130.68,129.46-198.78,33.32-55.24,62.92-110.46,88.83-160.19C1138.65,564.3,1172,466.67,1172.17,404,1172.6,206.77,1040.17,71.93,841.09,71.5ZM839.94,606c-121.66-.26-221-100-220.72-221.68s100-221,221.67-220.72,221,100,220.72,221.67S961.59,606.3,839.94,606Z"/><path class="cls-20" d="M1066.64,711.56c-22.76,43.14-48.13,89.56-76.14,136-40.68,68.09-85.06,134.36-129.44,198.77-7.39,11-14.79,20.24-22.19,29.47l-22-29.57c-44.11-62.75-88.2-131.06-128.59-199.32-33.09-55.4-64.3-110.75-90-160.58-56.89-118.09-89.86-215.87-89.72-278.53.18-83.67,22-154.72,61.93-209.32-15.81,41.17-24.19,88.08-24.31,139.8C546,400.92,579,498.7,635.86,616.79c25.7,49.83,56.9,105.19,90,160.58,40.38,68.26,84.48,136.57,128.59,199.32l22,29.57c7.41-9.23,14.8-18.42,22.19-29.47,44.38-64.4,88.77-130.68,129.44-198.77C1041.58,755.74,1054.4,733.46,1066.64,711.56Z"/><path class="cls-21" d="M841,73.14C636.42,72.69,509,201.45,508.52,404.22c-.13,62.66,32.83,160.43,89.73,278.52,25.69,49.84,56.9,105.19,90,160.58,40.4,68.28,84.48,136.58,128.6,199.34l22.05,29.56c7.39-9.22,14.78-18.42,22.18-29.46C905.45,978.34,949.82,912.07,990.51,844c33.32-55.24,62.92-110.46,88.83-160.19,59.25-117.84,92.63-215.47,92.77-278.13C1172.54,208.41,1040.11,73.56,841,73.14Zm-1.15,534.54c-121.66-.26-221-100-220.72-221.68s100-221,221.67-220.72,221,100,220.72,221.67S961.54,607.94,839.88,607.68Z"/><path class="cls-6" d="M1036.9,181.76c44.34,41.13,75,94.44,87.18,153.8a327.83,327.83,0,0,1,6.35,65.86c0,7.72,12,7.73,12,0,0-70.7-21.48-139.22-65.82-194.66a309,309,0,0,0-31.22-33.48c-5.66-5.25-14.16,3.22-8.49,8.49Z"/><path class="cls-6" d="M957,128.41c.43.17,1.7.71,0,0q1.41.6,2.81,1.23c3.74,1.69,7.43,3.51,11.07,5.41a309.56,309.56,0,0,1,35.9,22.13c6.31,4.48,12.31-5.93,6.06-10.36-16.35-11.6-33.9-22.57-52.63-30C953,114,949.86,125.6,957,128.41Z"/><path class="cls-6" d="M221,477.82v60c0,3.86,6,3.87,6,0v-60c0-3.86-6-3.87-6,0Z"/><path class="cls-6" d="M221,557.82v89c0,3.86,6,3.87,6,0v-89c0-3.86-6-3.87-6,0Z"/></g></g></svg>